# xmcd
#
# Track frame offsets: 
#        150
#        14841
#        34558
#        71751
#        90845
#        104526
#        123734
#        137488
#        152392
#        170325
#
# Disc length: 2731 seconds
#
# Revision: 0
# Processed by: cddbd v1.5PL3 Copyright (c) Steve Scherf et al.
# Submitted via: ExactAudioCopy v0.95a5
#
DISCID=7b0aa90a
DTITLE=George Thorogood and The Destroyers - George Thorogood and The 
DTITLE=Destroyers
DYEAR=1978
DGENRE=Blues
TTITLE0=You got to lose
TTITLE1=Madison Blues
TTITLE2=One Bourbon, One Scotch, One Beer
TTITLE3=Kind hearted woman
TTITLE4=Can't stop lovin'
TTITLE5=Ride on Josephine
TTITLE6=Homesick Boy
TTITLE7=John Hardy
TTITLE8=I'll change my style
TTITLE9=Delaware Slide
EXTD=
EXTT0=
EXTT1=
EXTT2=
EXTT3=
EXTT4=
EXTT5=
EXTT6=
EXTT7=
EXTT8=
EXTT9=
PLAYORDER=
